<?xml version="1.0" encoding="UTF-8"?>
<svg viewBox="0 0 2560 2560" xmlns="http://www.w3.org/2000/svg">
<defs>
<style>.cls-1{fill:url(#b);}.cls-2{fill:#ff7bac;}.cls-3{fill:url(#a);}.cls-4{mask:url(#c);}.cls-5{fill:url(#v);}.cls-6{fill:url(#l);}.cls-7{fill:url(#k);}.cls-8{fill:url(#j);}.cls-9{fill:url(#i);}.cls-10{fill:url(#h);}.cls-11{fill:url(#g);}.cls-12{fill:url(#f);}.cls-13{fill:url(#e);}.cls-14{fill:url(#u);}.cls-15{fill:url(#t);}.cls-16{fill:url(#s);}.cls-17{fill:url(#r);}.cls-18{fill:url(#q);}.cls-19{fill:url(#p);}.cls-20{fill:url(#o);}.cls-21{fill:url(#n);}.cls-22{fill:url(#m);}.cls-23{fill:#fff;}.cls-24{filter:url(#d);}</style>
<radialGradient id="b" cx="2451.2" cy="2363.8" r="2273.4" gradientUnits="userSpaceOnUse">
<stop stop-color="#ffaad4" offset="0"/>
<stop stop-color="#ffaad4" offset=".23"/>
</radialGradient>
<radialGradient id="a" cx="1281" cy="1330" r="1205" gradientUnits="userSpaceOnUse">
<stop stop-color="#ff7bac" offset="0"/>
<stop stop-color="#ff7cad" stop-opacity=".98" offset=".02"/>
<stop stop-color="#ff7fb0" stop-opacity=".91" offset=".05"/>
<stop stop-color="#ff84b4" stop-opacity=".8" offset=".08"/>
<stop stop-color="#ff8bba" stop-opacity=".65" offset=".12"/>
<stop stop-color="#ff94c2" stop-opacity=".46" offset=".15"/>
<stop stop-color="#ff9fcb" stop-opacity=".23" offset=".19"/>
<stop stop-color="#ffaad4" stop-opacity="0" offset=".23"/>
</radialGradient>
<filter id="d" x="830.4" y="-9472" width="900.6" height="32766" color-interpolation-filters="sRGB" filterUnits="userSpaceOnUse">
<feFlood flood-color="#fff" result="bg"/>
<feBlend in="SourceGraphic" in2="bg"/>
</filter>
<mask id="c" x="830.4" y="-9472" width="900.6" height="32766" maskUnits="userSpaceOnUse"/>
<linearGradient id="v" x1="1280" x2="1066.7" y1="1330" y2="1584.2" gradientUnits="userSpaceOnUse">
<stop stop-color="#fff" offset=".4"/>
<stop stop-color="#0057b3" offset="1"/>
</linearGradient>
<linearGradient id="l" x1="1280" x2="953.23" y1="1330" y2="1387.6" gradientUnits="userSpaceOnUse">
<stop stop-color="#fff" offset=".4"/>
<stop stop-color="#007db5" offset="1"/>
</linearGradient>
<linearGradient id="k" x1="1280" x2="992.64" y1="1330" y2="1164.1" gradientUnits="userSpaceOnUse">
<stop stop-color="#fff" offset=".4"/>
<stop stop-color="#008f86" offset="1"/>
</linearGradient>
<linearGradient id="j" x1="1280" x2="1166.5" y1="1330" y2="1018.2" gradientUnits="userSpaceOnUse">
<stop stop-color="#fff" offset=".4"/>
<stop stop-color="#009d38" offset="1"/>
</linearGradient>
<linearGradient id="i" x1="1280" x2="1393.5" y1="1330" y2="1018.2" gradientUnits="userSpaceOnUse">
<stop stop-color="#fff" offset=".4"/>
<stop stop-color="#9ec500" offset="1"/>
</linearGradient>
<linearGradient id="h" x1="1280" x2="1567.4" y1="1330" y2="1164.1" gradientUnits="userSpaceOnUse">
<stop stop-color="#fff" offset=".4"/>
<stop stop-color="#ff9d00" offset="1"/>
</linearGradient>
<linearGradient id="g" x1="1280" x2="1606.8" y1="1330" y2="1387.6" gradientUnits="userSpaceOnUse">
<stop stop-color="#fff" offset=".4"/>
<stop stop-color="#c82735" offset="1"/>
</linearGradient>
<linearGradient id="f" x1="1280" x2="1493.3" y1="1330" y2="1584.2" gradientUnits="userSpaceOnUse">
<stop stop-color="#fff" offset=".4"/>
<stop stop-color="#b70073" offset="1"/>
</linearGradient>
<linearGradient id="e" x1="1280" x2="1280" y1="1330" y2="1661.8" gradientUnits="userSpaceOnUse">
<stop stop-color="#fff" offset=".4"/>
<stop stop-color="#7d45a8" offset="1"/>
</linearGradient>
<linearGradient id="u" x1="1280.7" x2="1574.1" y1="1330" y2="980.38" gradientUnits="userSpaceOnUse">
<stop stop-color="#fff" offset=".29"/>
<stop stop-color="#ffdf00" offset="1"/>
</linearGradient>
<linearGradient id="t" x1="1280.7" x2="1730.2" y1="1330" y2="1250.8" gradientUnits="userSpaceOnUse">
<stop stop-color="#fff" offset=".29"/>
<stop stop-color="#f65a14" offset="1"/>
</linearGradient>
<linearGradient id="s" x1="1280.7" x2="1676" y1="1330" y2="1558.2" gradientUnits="userSpaceOnUse">
<stop stop-color="#fff" offset=".29"/>
<stop stop-color="#bc004e" offset="1"/>
</linearGradient>
<linearGradient id="r" x1="1280.7" x2="1436.8" y1="1330" y2="1758.9" gradientUnits="userSpaceOnUse">
<stop stop-color="#fff" offset=".29"/>
<stop stop-color="#9f2b95" offset="1"/>
</linearGradient>
<linearGradient id="q" x1="1280.7" x2="1124.6" y1="1330" y2="1758.9" gradientUnits="userSpaceOnUse">
<stop stop-color="#fff" offset=".29"/>
<stop stop-color="#374ab5" offset="1"/>
</linearGradient>
<linearGradient id="p" x1="1280.7" x2="885.44" y1="1330" y2="1558.2" gradientUnits="userSpaceOnUse">
<stop stop-color="#fff" offset=".29"/>
<stop stop-color="#006bbb" offset="1"/>
</linearGradient>
<linearGradient id="o" x1="1280.7" x2="831.23" y1="1330" y2="1250.8" gradientUnits="userSpaceOnUse">
<stop stop-color="#fff" offset=".29"/>
<stop stop-color="#008da9" offset="1"/>
</linearGradient>
<linearGradient id="n" x1="1280.7" x2="987.33" y1="1330" y2="980.38" gradientUnits="userSpaceOnUse">
<stop stop-color="#fff" offset=".29"/>
<stop stop-color="#009060" offset="1"/>
</linearGradient>
<linearGradient id="m" x1="1280.7" x2="1280.7" y1="1330" y2="873.6" gradientUnits="userSpaceOnUse">
<stop stop-color="#fff" offset=".29"/>
<stop stop-color="#f3faf1" offset=".36"/>
<stop stop-color="#d5eecc" offset=".5"/>
<stop stop-color="#a4da91" offset=".69"/>
<stop stop-color="#61be40" offset=".91"/>
<stop stop-color="#46b31f" offset="1"/>
</linearGradient>
</defs>
<path class="cls-1" d="M2305.24,996.88l75-145.09C2272.9,766,2069.49,660.93,1886.49,720,1771.41,757.2,1669.55,829.61,1583.73,912c51.79-107.07,89.19-226.31,89-347.25-.34-192.3-163.1-353.3-277.9-428.9L1280,252,1165.2,135.8c-114.8,75.6-277.56,236.6-277.9,428.9-.22,120.94,37.18,240.18,89,347.25C890.45,829.61,788.59,757.2,673.51,720c-183-59.1-386.41,45.94-493.79,131.76l75,145.09-146,73.27C145.2,1202.7,248,1407.24,430.8,1467c115,37.58,239.92,38.86,357.75,22.69-104.83,56.18-205.17,130.67-276.08,228.64-112.76,155.77-75.72,381.69-27.28,510.33l161.18-26.53,24.57,161.49c137.31,6.31,363.62-28.27,476.93-183.65,71.26-97.71,111.09-216.16,132.13-333.22,21,117.06,60.87,235.51,132.13,333.22,113.31,155.38,339.62,190,476.93,183.65l24.57-161.49,161.18,26.53c48.44-128.64,85.48-354.56-27.28-510.33-70.91-98-171.25-172.46-276.08-228.64,117.83,16.17,242.79,14.89,357.75-22.69,182.78-59.75,285.6-264.29,322-396.84Z" data-name="Petals"/>
<path class="cls-2" d="m1752.7 1176.4c294-32.24 503.29-163.53 503.29-163.53s-246.48 16.79-503.29 163.53z"/>
<path class="cls-2" d="m1572.1 1732.1c121.51 269.67 311.06 428.13 311.06 428.13s-92.14-229.21-311.06-428.13z"/>
<path class="cls-2" d="M676.81,2160.21s189.55-158.46,311.06-428.13C769,1931,676.81,2160.21,676.81,2160.21Z"/>
<path class="cls-2" d="M304,1012.89s209.28,131.29,503.29,163.53C550.51,1029.68,304,1012.89,304,1012.89Z"/>
<path class="cls-2" d="m1280 833c60.2-289.59 0-529.2 0-529.2s-60.2 239.61 0 529.2z"/>
<circle class="cls-3" cx="1281" cy="1330" r="1205" data-name="Petal Overlay"/>
<g class="cls-4">
<g data-name="Short Stamen">
<path class="cls-5" d="m1121.6 1524.4 161.64-191.7-6.42-5.42-161.73 191.82a40.6 40.6 0 1 0 6.51 5.3z"/>
<path class="cls-6" d="m1280.7 1334.1-1.44-8.28-247.19 43a40.61 40.61 0 1 0 1.58 8.25z"/>
<path class="cls-7" d="m1282.1 1326.4-217-126a40.59 40.59 0 1 0-4.09 7.34l216.86 125.9z"/>
<path class="cls-8" d="m1284 1328.6-85.25-236a40.6 40.6 0 1 0-7.85 3l85.2 235.84z"/>
<path class="cls-9" d="m1393.5 1018.2a40.6 40.6 0 0 0-31.1 74.92l-86.33 235.42 7.89 2.9 86.38-235.57a40.6 40.6 0 0 0 23.16-77.67z"/>
<path class="cls-10" d="m1567.4 1164.1a40.6 40.6 0 0 0-72 37.4l-217.46 124.86 4.18 7.29 217.59-124.93a40.6 40.6 0 0 0 67.67-44.62z"/>
<path class="cls-11" d="m1573.8 1340.6a40.61 40.61 0 0 0-46.25 29.42l-246.84-44.13-1.48 8.27 247 44.16a40.6 40.6 0 1 0 47.58-37.72z"/>
<path class="cls-12" d="m1498.3 1527a40.62 40.62 0 0 0-54.34-7.19l-160.72-192.47-6.45 5.38 160.82 192.59a40.59 40.59 0 1 0 60.69 1.69z"/>
<path class="cls-13" d="M1283.6,1580.77l.6-250.76-8.4,0-.6,250.9a40.62,40.62,0,1,0,8.4-.12Z"/>
</g>
<g data-name="Long Stamen">
<path class="cls-14" d="M1574.07,980.38a53.89,53.89,0,0,0-72.45,79.69L1277,1326.85l6.42,5.41,224.67-266.79a53.89,53.89,0,0,0,66-85.09Z"/>
<path class="cls-15" d="m1730.2 1250.8a53.89 53.89 0 0 0-106.72 14.47l-343.59 60 1.45 8.27 343.59-60a53.89 53.89 0 0 0 105.27-22.75z"/>
<path class="cls-16" d="m1656.2 1484.6a53.89 53.89 0 0 0-71.33 16.12l-301.74-174.93-4.16 7.23 301.69 175a53.89 53.89 0 1 0 75.54-23.38z"/>
<path class="cls-17" d="m1469 1689.8a53.9 53.9 0 0 0-65-33.51l-118.71-328-7.9 2.86 118.71 328a53.89 53.89 0 1 0 72.9 30.65z"/>
<path class="cls-18" d="m1165.4 1659.2 119.87-327.53-7.89-2.89-119.87 327.53a53.93 53.93 0 1 0 7.89 2.89z"/>
<path class="cls-19" d="m1283.1 1334.3-4.14-7.26-302.41 173.83a53.89 53.89 0 1 0 4.19 7.28z"/>
<path class="cls-20" d="m1281.3 1326.6-343.38-61.17a53.88 53.88 0 1 0-1.47 8.27l343.37 61.17z"/>
<path class="cls-21" d="m1283.4 1327.8-223.72-267.58a53.89 53.89 0 1 0-6.44 5.39l223.72 267.58z"/>
<path class="cls-22" d="m1334.6 927.5a53.9 53.9 0 1 0-58.18 53.72l-0.62 348.78h8.4l0.62-348.78a53.9 53.9 0 0 0 49.78-53.72z"/>
</g>
</g>
<circle class="cls-23" cx="1280" cy="1330" r="130.2"/>
</svg>
